<svg width="204" height="209" viewBox="0 0 204 209" fill="none" xmlns="http://www.w3.org/2000/svg">
<path opacity="0.4" d="M153.219 61.1913C183.206 27.4752 220.679 46.023 243.86 66.5929C267.041 87.1628 264.955 312.254 135.811 295.919C6.66564 279.584 17.1335 156.083 60.8577 143.892C104.582 131.701 85.3602 124.28 114.851 114.266C144.342 104.252 123.232 94.9073 153.219 61.1913Z" fill="url(#paint0_linear_17_43)"/>
<path opacity="0.4" d="M170.219 78.1913C200.206 44.4752 237.679 63.023 260.86 83.5929C284.041 104.163 281.955 329.254 152.811 312.919C23.6656 296.584 34.1335 173.083 77.8577 160.892C121.582 148.701 102.36 141.28 131.851 131.266C161.342 121.252 140.232 111.907 170.219 78.1913Z" fill="url(#paint1_linear_17_43)"/>
<defs>
<linearGradient id="paint0_linear_17_43" x1="64.5729" y1="117.231" x2="244.143" y2="216.141" gradientUnits="userSpaceOnUse">
<stop stop-color="#82A93C"/>
<stop offset="1" stop-color="white" stop-opacity="0"/>
</linearGradient>
<linearGradient id="paint1_linear_17_43" x1="81.5729" y1="134.231" x2="261.143" y2="233.141" gradientUnits="userSpaceOnUse">
<stop stop-color="#82A93C"/>
<stop offset="1" stop-color="white" stop-opacity="0"/>
</linearGradient>
</defs>
</svg>
