<svg width="73" height="73" viewBox="0 0 73 73" fill="none" xmlns="http://www.w3.org/2000/svg">
<circle cx="35.3553" cy="5.65685" r="4" transform="rotate(45 35.3553 5.65685)" fill="#82A93C" fill-opacity="0.29"/>
<circle cx="43.1335" cy="13.435" r="4" transform="rotate(45 43.1335 13.435)" fill="#82A93C" fill-opacity="0.29"/>
<circle cx="50.9117" cy="21.2132" r="4" transform="rotate(45 50.9117 21.2132)" fill="#82A93C" fill-opacity="0.29"/>
<circle cx="58.6899" cy="28.9914" r="4" transform="rotate(45 58.6899 28.9914)" fill="#82A93C" fill-opacity="0.29"/>
<circle cx="66.468" cy="36.7696" r="4" transform="rotate(45 66.468 36.7696)" fill="#82A93C" fill-opacity="0.29"/>
<circle cx="25.4558" cy="15.5563" r="4" transform="rotate(45 25.4558 15.5563)" fill="#82A93C" fill-opacity="0.29"/>
<circle cx="33.234" cy="23.3345" r="4" transform="rotate(45 33.234 23.3345)" fill="#82A93C" fill-opacity="0.29"/>
<circle cx="41.0122" cy="31.1127" r="4" transform="rotate(45 41.0122 31.1127)" fill="#82A93C" fill-opacity="0.29"/>
<circle cx="48.7904" cy="38.8909" r="4" transform="rotate(45 48.7904 38.8909)" fill="#82A93C" fill-opacity="0.29"/>
<circle cx="56.5685" cy="46.669" r="4" transform="rotate(45 56.5685 46.669)" fill="#82A93C" fill-opacity="0.29"/>
<circle cx="15.5564" cy="25.4559" r="4" transform="rotate(45 15.5564 25.4559)" fill="#82A93C" fill-opacity="0.29"/>
<circle cx="23.3345" cy="33.234" r="4" transform="rotate(45 23.3345 33.234)" fill="#82A93C" fill-opacity="0.29"/>
<circle cx="31.1127" cy="41.0122" r="4" transform="rotate(45 31.1127 41.0122)" fill="#82A93C" fill-opacity="0.29"/>
<circle cx="38.8909" cy="48.7904" r="4" transform="rotate(45 38.8909 48.7904)" fill="#82A93C" fill-opacity="0.29"/>
<circle cx="46.6691" cy="56.5685" r="4" transform="rotate(45 46.6691 56.5685)" fill="#82A93C" fill-opacity="0.29"/>
<circle cx="5.65686" cy="35.3553" r="4" transform="rotate(45 5.65686 35.3553)" fill="#82A93C" fill-opacity="0.29"/>
<circle cx="13.435" cy="43.1335" r="4" transform="rotate(45 13.435 43.1335)" fill="#82A93C" fill-opacity="0.29"/>
<circle cx="21.2132" cy="50.9117" r="4" transform="rotate(45 21.2132 50.9117)" fill="#82A93C" fill-opacity="0.29"/>
<circle cx="28.9914" cy="58.6899" r="4" transform="rotate(45 28.9914 58.6899)" fill="#82A93C" fill-opacity="0.29"/>
<circle cx="36.7696" cy="66.468" r="4" transform="rotate(45 36.7696 66.468)" fill="#82A93C" fill-opacity="0.29"/>
</svg>
