<svg width="20" height="21" viewBox="0 0 20 21" fill="none" xmlns="http://www.w3.org/2000/svg">
<path d="M6.00922 20.5C5.45922 20.5 4.98838 20.3042 4.59672 19.9125C4.20505 19.5208 4.00922 19.05 4.00922 18.5C4.00922 17.95 4.20505 17.4792 4.59672 17.0875C4.98838 16.6958 5.45922 16.5 6.00922 16.5C6.55922 16.5 7.03005 16.6958 7.42172 17.0875C7.81338 17.4792 8.00922 17.95 8.00922 18.5C8.00922 19.05 7.81338 19.5208 7.42172 19.9125C7.03005 20.3042 6.55922 20.5 6.00922 20.5ZM16.0092 20.5C15.4592 20.5 14.9884 20.3042 14.5967 19.9125C14.2051 19.5208 14.0092 19.05 14.0092 18.5C14.0092 17.95 14.2051 17.4792 14.5967 17.0875C14.9884 16.6958 15.4592 16.5 16.0092 16.5C16.5592 16.5 17.0301 16.6958 17.4217 17.0875C17.8134 17.4792 18.0092 17.95 18.0092 18.5C18.0092 19.05 17.8134 19.5208 17.4217 19.9125C17.0301 20.3042 16.5592 20.5 16.0092 20.5ZM5.15922 4.5L7.55922 9.5H14.5592L17.3092 4.5H5.15922ZM4.20922 2.5H18.9592C19.3426 2.5 19.6342 2.67083 19.8342 3.0125C20.0342 3.35417 20.0425 3.7 19.8592 4.05L16.3092 10.45C16.1259 10.7833 15.88 11.0417 15.5717 11.225C15.2634 11.4083 14.9259 11.5 14.5592 11.5H7.10922L6.00922 13.5H17.0092C17.2925 13.5 17.53 13.5958 17.7217 13.7875C17.9134 13.9792 18.0092 14.2167 18.0092 14.5C18.0092 14.7833 17.9134 15.0208 17.7217 15.2125C17.53 15.4042 17.2925 15.5 17.0092 15.5H6.00922C5.25922 15.5 4.69255 15.1708 4.30922 14.5125C3.92588 13.8542 3.90922 13.2 4.25922 12.55L5.60922 10.1L2.00922 2.5H1.00922C0.725883 2.5 0.488383 2.40417 0.296716 2.2125C0.10505 2.02083 0.00921631 1.78333 0.00921631 1.5C0.00921631 1.21667 0.10505 0.979167 0.296716 0.7875C0.488383 0.595833 0.725883 0.5 1.00922 0.5H2.63422C2.81755 0.5 2.99255 0.55 3.15922 0.65C3.32588 0.75 3.45088 0.891667 3.53422 1.075L4.20922 2.5Z" fill="tomato"/>
</svg>
